# xmcd
#
# Track frame offsets: 
#        150
#        23936
#        42713
#        54956
#        78669
#        93865
#        111568
#        122117
#        132678
#        147253
#
# Disc length: 2151 seconds
#
# Revision: 0
# Processed by: cddbd v1.5.2PL0 Copyright (c) Steve Scherf et al.
# Submitted via: ExactAudioCopy v0.95b3
#
DISCID=9408650a
DTITLE=Various Artist - Country's Classic Gospel Songs Of The Century: Gold E
DTITLE=dition
DYEAR=2012
DGENRE=Country
TTITLE0=Vince Gill - Go Rest High On That Mountain
TTITLE1=Emmylou Harris, Linda Ronstadt, Dolly Parton - Farther Along
TTITLE2=Tammy Wynette - Precious Memories
TTITLE3=The Statler Brothers - Amazing Grace
TTITLE4=Merle Haggard - Precious Lord, Take My Hand\\Jesus Hold My Han
TTITLE4=d (Medley)
TTITLE5=Johnny Cash - Were You There (When They Crucified My Lord)
TTITLE6=Ferlin Husky - Wings Of A Dove
TTITLE7=Jim Reeves - In The Garden
TTITLE8=Red Foley - Peace In The Valley
TTITLE9=The Carter Family - Can The Circle Be Unbroken
EXTD=
EXTT0=
EXTT1=
EXTT2=
EXTT3=
EXTT4=
EXTT5=
EXTT6=
EXTT7=
EXTT8=
EXTT9=
PLAYORDER=
